<svg xmlns="http://www.w3.org/2000/svg" viewBox="0 0 40 40"><defs><style>.cls-1{fill:#606664;}.cls-2{fill:#c4c4c4;}</style></defs><g id="Capa_2" data-name="Capa 2"><g id="Capa_1-2" data-name="Capa 1"><circle class="cls-1" cx="20" cy="20" r="20"/><path class="cls-2" d="M27.07,10.35,13.43,18.5c0-3.73,0-6.75,0-7.1A1.25,1.25,0,0,0,11,11.18c0,.36,0,9.72,0,17.51a1.25,1.25,0,0,0,1.25,1.25h0a1.25,1.25,0,0,0,1.25-1.26c0-2.17,0-4.72,0-7.18l13.64,8.15a1.33,1.33,0,0,0,2-1.14v-17A1.33,1.33,0,0,0,27.07,10.35Z"/></g></g></svg>