<svg xmlns="http://www.w3.org/2000/svg" viewBox="0 0 40 40"><defs><style>.cls-1{fill:#606664;}.cls-2{fill:#c4c4c4;}</style></defs><g id="Capa_2" data-name="Capa 2"><g id="Capa_1-2" data-name="Capa 1"><circle class="cls-1" cx="20" cy="20" r="20"/><path class="cls-2" d="M29.05,11.18a1.22,1.22,0,0,0-1.33-1.11,1.26,1.26,0,0,0-1.16,1.32c0,.3,0,3.34,0,7.1L12.93,10.34a1.33,1.33,0,0,0-2,1.14v17a1.33,1.33,0,0,0,2,1.14L26.57,21.5c0,2.46,0,5,0,7.18a1.24,1.24,0,0,0,1.25,1.25h0a1.25,1.25,0,0,0,1.25-1.25C29.08,20.89,29.09,11.53,29.05,11.18Z"/></g></g></svg>