<svg xmlns="http://www.w3.org/2000/svg" viewBox="0 0 40 40"><defs><style>.cls-1{fill:#606664;}.cls-2{fill:#c4c4c4;}</style></defs><g id="Capa_2" data-name="Capa 2"><g id="Capa_1-2" data-name="Capa 1"><circle class="cls-1" cx="20" cy="20" r="20"/><path class="cls-2" d="M21.38,12.15,23,15.42a1.55,1.55,0,0,0,1.16.84l3.61.52a1.54,1.54,0,0,1,.85,2.63L26,22a1.54,1.54,0,0,0-.44,1.36l.62,3.6a1.55,1.55,0,0,1-2.24,1.62l-3.22-1.7a1.59,1.59,0,0,0-1.44,0l-3.22,1.7a1.55,1.55,0,0,1-2.24-1.62l.62-3.6A1.54,1.54,0,0,0,14,22l-2.61-2.54a1.54,1.54,0,0,1,.85-2.63l3.61-.52A1.55,1.55,0,0,0,17,15.42l1.61-3.27A1.54,1.54,0,0,1,21.38,12.15Z"/></g></g></svg>