<svg xmlns="http://www.w3.org/2000/svg" viewBox="0 0 100 100"><defs><style>.cls-1{fill:#606664;}.cls-2{fill:#c4c4c4;}</style></defs><g id="Capa_2" data-name="Capa 2"><g id="Capa_1-2" data-name="Capa 1"><circle class="cls-1" cx="50" cy="50" r="50"/><path class="cls-2" d="M39,77.11h0a3.45,3.45,0,0,1-3.45-3.46c0-18.09.07-45.57,0-47.12a3.48,3.48,0,0,1,3.19-3.63A3.41,3.41,0,0,1,42.4,26c.1,1,.07,26.48,0,47.71A3.45,3.45,0,0,1,39,77.11Z"/><path class="cls-2" d="M61,77.11h0a3.45,3.45,0,0,1-3.45-3.46c0-18.1.08-45.59,0-47.12a3.48,3.48,0,0,1,3.2-3.63A3.4,3.4,0,0,1,64.43,26c.1,1,.06,26.47,0,47.7A3.46,3.46,0,0,1,61,77.11Z"/></g></g></svg>